<svg width="128" height="33" viewBox="0 0 128 33" fill="none" xmlns="http://www.w3.org/2000/svg">
<path d="M13.4551 32.3938C12.0326 32.3938 10.8279 32.0011 9.84094 31.2158C8.88297 30.4013 8.15724 29.1942 7.66374 27.5944L0 2.59424H4.52857L11.7569 26.4601C11.931 26.9836 12.1488 27.3763 12.41 27.6381C12.6713 27.8999 13.0196 28.0308 13.4551 28.0308C13.8905 28.0308 14.2389 27.8999 14.5001 27.6381C14.7904 27.3763 15.0082 26.9836 15.1533 26.4601L22.2945 2.59424H26.8666L19.2029 27.5944C18.7094 29.1942 17.9691 30.4013 16.9821 31.2158C16.0242 32.0011 14.8485 32.3938 13.4551 32.3938Z" fill="white"/>
<path d="M30.3451 10.4477H34.6553V31.8266H30.3451V10.4477ZM32.4784 6.21558C31.985 6.21558 31.5206 6.09923 31.0852 5.86654C30.6498 5.60476 30.3015 5.25571 30.0403 4.81941C29.7791 4.38311 29.6484 3.90317 29.6484 3.37961C29.6484 2.85604 29.7791 2.37611 30.0403 1.9398C30.3015 1.5035 30.6498 1.15446 31.0852 0.892674C31.5206 0.630891 31.985 0.5 32.4784 0.5C33.0009 0.5 33.4653 0.630891 33.8717 0.892674C34.307 1.15446 34.6408 1.5035 34.873 1.9398C35.1343 2.37611 35.2649 2.85604 35.2649 3.37961C35.2649 3.90317 35.1343 4.38311 34.873 4.81941C34.6408 5.25571 34.307 5.60476 33.8717 5.86654C33.4653 6.09923 33.0009 6.21558 32.4784 6.21558Z" fill="white"/>
<path d="M49.1847 14.069C47.7913 14.069 46.6301 14.418 45.7012 15.1161C44.7722 15.8142 44.0755 16.7159 43.6111 17.8212C43.1466 18.9265 42.9144 20.1481 42.9144 21.4861V31.8265H38.6035V21.0498C38.6035 18.9556 39.0099 17.0795 39.8227 15.4215C40.6356 13.7345 41.8258 12.3965 43.3934 11.4075C44.9609 10.4185 46.8914 9.92407 49.1847 9.92407C51.5361 9.92407 53.4956 10.4185 55.0631 11.4075C56.6597 12.3965 57.8645 13.7345 58.6773 15.4215C59.5191 17.0795 59.9401 18.941 59.9401 21.0062V31.8265H55.6292V21.5298C55.6292 20.1918 55.3825 18.9701 54.889 17.8648C54.4245 16.7304 53.7133 15.8142 52.7553 15.1161C51.8264 14.418 50.6362 14.069 49.1847 14.069Z" fill="white"/>
<path d="M79.4834 30.9734C77.5995 32.0078 75.6764 32.5165 73.714 32.4994C71.7377 32.4569 69.9122 31.9335 68.2376 30.9293C66.5489 29.8996 65.1815 28.4282 64.1352 26.5151C63.1586 24.7295 62.6604 22.8804 62.6404 20.9676C62.6065 19.0293 63.0652 17.2351 64.0165 15.585C64.9539 13.9095 66.3645 12.5545 68.2483 11.5201C70.1322 10.4857 71.9789 10.019 73.7885 10.1199C75.6096 10.1813 77.2799 10.7236 78.7994 11.7467C80.3305 12.7303 81.5703 14.0893 82.5189 15.8239L83.3559 17.3543L67.6614 25.9719L67.5117 24.064C68.1608 25.4324 69.0259 26.4997 70.107 27.266C71.1881 28.0322 72.3868 28.4686 73.7029 28.5752C75.0051 28.6562 76.3054 28.3402 77.6037 27.6273C78.7747 26.9843 79.6917 26.1492 80.3546 25.1218C81.043 24.0805 81.3882 22.8959 81.3903 21.568L85.1085 21.4667C85.1728 23.5211 84.7095 25.3675 83.7188 27.006C82.7281 28.6445 81.3163 29.967 79.4834 30.9734ZM67.2004 23.0409L78.2363 16.9814C77.6413 16.0145 76.8927 15.2812 75.9905 14.7816C75.1137 14.268 74.1564 14.0307 73.1186 14.0699C72.1062 14.0951 71.0908 14.3873 70.0725 14.9464C69.0288 15.5195 68.2182 16.2465 67.6407 17.1275C67.0887 17.9944 66.7801 18.9433 66.7149 19.9742C66.6752 20.991 66.837 22.0133 67.2004 23.0409Z" fill="white"/>
<path d="M98.0794 32.3936C96.3376 32.3936 94.8571 32.0446 93.6379 31.3465C92.4187 30.6484 91.4897 29.6886 90.8511 28.4669C90.2415 27.2162 89.9367 25.7764 89.9367 24.1475V4.90649H94.2475V24.0166C94.2475 25.4128 94.6249 26.5035 95.3797 27.2889C96.1634 28.0742 97.194 28.4669 98.4713 28.4669C99.168 28.4669 99.8647 28.3506 100.561 28.1179C101.287 27.8852 101.911 27.5798 102.434 27.2016V31.172C101.882 31.521 101.215 31.8119 100.431 32.0446C99.647 32.2773 98.8632 32.3936 98.0794 32.3936ZM102.434 14.1998H85.7129V10.4476H102.434V14.1998Z" fill="white"/>
<path d="M115.981 32.3501C113.92 32.3501 112.077 31.8411 110.451 30.823C108.855 29.805 107.592 28.4524 106.663 26.7654C105.734 25.0493 105.27 23.1586 105.27 21.0935C105.27 19.0574 105.763 17.1958 106.75 15.5088C107.766 13.7926 109.13 12.4401 110.843 11.4511C112.556 10.4331 114.486 9.92407 116.635 9.92407C118.783 9.92407 120.713 10.4185 122.426 11.4075C124.139 12.3674 125.488 13.6908 126.475 15.3779C127.491 17.0649 127.999 18.9701 127.999 21.0935V31.8265H123.906V23.8422L125.387 22.7078C125.387 24.5112 124.98 26.14 124.168 27.5944C123.384 29.0487 122.281 30.2122 120.858 31.0848C119.465 31.9283 117.839 32.3501 115.981 32.3501ZM116.635 28.2488C117.97 28.2488 119.175 27.9289 120.249 27.289C121.323 26.6491 122.165 25.791 122.774 24.7148C123.384 23.6095 123.689 22.4169 123.689 21.1371C123.689 19.8282 123.384 18.6356 122.774 17.5594C122.165 16.4832 121.323 15.6251 120.249 14.9852C119.175 14.3162 117.97 13.9817 116.635 13.9817C115.299 13.9817 114.094 14.3162 113.02 14.9852C111.975 15.6251 111.133 16.4832 110.495 17.5594C109.885 18.6356 109.58 19.8282 109.58 21.1371C109.58 22.4169 109.885 23.6095 110.495 24.7148C111.133 25.791 111.975 26.6491 113.02 27.289C114.094 27.9289 115.299 28.2488 116.635 28.2488Z" fill="white"/>
</svg>
